<svg id="SvgjsSvg1001" width="200" height="200"
    viewBox="0 0 0 0"

    xmlns="http://www.w3.org/2000/svg" version="1.1"
    xmlns:xlink="http://www.w3.org/1999/xlink"
    xmlns:svgjs="http://svgjs.com/svgjs">
    <defs id="SvgjsDefs1002"></defs>
    <g id="SvgjsG1008">
        <svg xmlns="http://www.w3.org/2000/svg" enable-background="new 0 0 425.2 425.2" viewBox="0 0 425.2 425.2" width="288" height="288">
            <rect width="10.1" height="81.9" x="336.7" y="287.7" fill="#120101" class="colorfff svgShape"></rect>
            <rect width="9.7" height="56.8" x="145" y="312.7" fill="#120101" class="colorfff svgShape"></rect>
            <path fill="#120101" d="M211.9 330c0-12.1-7.1-18.3-24.1-18.3-18.1 0-25.8 7.3-25.8 29.3 0 21.5 7.5 29.6 26.8 29.6 6.4 0 16.5-.9 21.8-3.1l-1-6.6c-5.8.8-13.5 1.4-19.5 1.4-11.5 0-16.7-3-17.7-16.4h26.1C207.8 345.9 212 340 211.9 330zM172.2 338.3c.3-14.2 4.3-18.3 16-18.3 10 0 13.7 2.9 13.8 10 0 4.1-1 8.3-6.1 8.3H172.2zM236.2 295.5h-9.8v17.2l-10.1.9v6.8h10.1v34.9c0 9.8 5 15.2 14.4 15.2 2.8 0 9-.5 12.7-1.5l-1.2-7.5h-8.5c-5.5 0-7.6-2.1-7.6-7.5v-33.6h17.9v-7.7h-17.9V295.5zM108 361.7h-3.2l-23.4-74H70.9l26.4 79.1c.5 1.7 2 2.8 3.8 2.8h10.6c1.8 0 3.3-1 3.8-2.8l26.4-79.1h-10.5L108 361.7zM320.8 369.5h10.5l-26.4-79.1c-.5-1.7-2-2.8-3.8-2.8h-10.6c-1.8 0-3.3 1-3.8 2.8l-26.4 79.1h10.5l23.4-74h3.2L320.8 369.5zM352.1 160.8C339.7 98.5 281.8 55.3 220.9 54.6c-51.7.5-102.7 26.4-121.2 77-8.8 24-7.5 50.2 9 70.6 13.9 17.2 35.6 28.1 57.9 26.4 12.1-.9 23.2-5.4 34.8-8.4 15.5-4 31.8-3.5 46.9 2.3 9.2 3.5 14.8 9.5 21.8 15.9 7 6.4 16.1 10.5 25.5 11.9 17.6 2.6 34.5-6.1 44.8-20C354.9 210.8 356.7 183.9 352.1 160.8zM136.2 90.7c22.5-18 52.3-25.2 80.7-25.4 45.2.5 87.7 25.1 111.8 63.2 10.5 16.6 7.2 36.3-6.2 51.9 5.4-10.8 7.5-24.9-3.7-37.3-11-12.3-29.5-9.9-36.8-7.7-1.2-1.3-2.9-2.2-4.8-2.3-3.9-.2-7.2 2.8-7.4 6.6 0 .2 0 .4 0 .6-6.5 3.2-12.6 7.1-18 10.8-.4-.9-.8-1.8-1.2-2.7-6.1-13.5-12.4-27.5-21.4-36.1-21.3-20.6-46.6-18.1-63.4-7.1-10.9 7.1-23.2 21.6-21.1 41.9 2.1 20.3 21.5 39.3 41.9 37.9-6.4 2.2-12.8 3.8-18.9 4.7-8.4 1.2-16.6 1.1-24.3-.4-.1-4.7-3.8-8.5-8.5-8.8-3-.2-5.7 1.1-7.5 3.3-16.6-7.4-23.5-14.5-24.6-31.5S118 105.3 136.2 90.7zM283.8 139.4c5.2-1.2 10.4-1.4 15.4.1 8.5 2.5 14.9 7.6 18.6 14.7 3.5 6.7 4.2 14.9 2 21.5-2.2 6.3-6.5 11.3-12.4 14.1-7.3 3.5-16.7 3.3-27.1-.6-11.9-4.4-19.6-18.8-26.7-34.1 5.5-3.8 11.4-7.8 17.6-10.9 1.2 1.6 3.1 2.7 5.2 2.8 3.9.2 7.2-2.8 7.4-6.6C283.8 140 283.8 139.7 283.8 139.4zM248.2 153.5c-.1.1-.2.1-.3.2-3.6 2.5-7 4.9-10.1 6.8-.9.6-1.9 1.2-3 1.9-17.3 11-51.8 32.9-73.4.7-15.3-22.8-3.9-44.2 8.6-53.7 6.8-5.1 16.2-8.8 26.6-8.2 9.5.5 19.8 4.5 29.7 14.1 8.4 8.1 14.5 21.7 20.4 34.8C247.2 151.3 247.7 152.4 248.2 153.5zM304.5 240.2c-8.8-.2-17.8-3.4-24.8-8.7-5.5-4.1-9.6-9.8-15.2-13.8-18.3-12.8-47.3-9.1-67.9-3.3-21.1 6-37.2 7.8-57.9-2.8-14.4-7.3-26.3-19.6-32.2-34.5 1.9 2.1 7 7.1 19.1 12.8.3 4.5 3.9 8.2 8.5 8.4 2.7.1 5.2-.9 6.9-2.7.1 0 .3.1.4.1 4.7 1.1 22.2 4.3 39.7-1.8 27.3-9.6 58.2-29.2 59.2-29.8 3.1-1.9 6.4-4.2 9.9-6.7 5.1 11 11 21.2 18 28.6 14.1 14.8 31.5 14.1 43.9 10.2 14.4-4.4 27.6-22.6 31.4-37.3C352.5 194.6 346 241 304.5 240.2z" class="colorfff svgShape"></path>
            <circle cx="295.8" cy="346.6" r="8.7" fill="#120101" class="colorfff svgShape"></circle>
        </svg>
    </g>
</svg>